<svg width="35" height="36" viewBox="0 0 35 36" fill="none" xmlns="http://www.w3.org/2000/svg">
<path d="M17.5 17.9634C15.8959 17.9634 14.5834 17.453 13.5625 16.4321C12.5417 15.4113 12.0313 14.0988 12.0313 12.4946C12.0313 10.8905 12.5417 9.57796 13.5625 8.55713C14.5834 7.5363 15.8959 7.02588 17.5 7.02588C19.1042 7.02588 20.4167 7.5363 21.4375 8.55713C22.4584 9.57796 22.9688 10.8905 22.9688 12.4946C22.9688 14.0988 22.4584 15.4113 21.4375 16.4321C20.4167 17.453 19.1042 17.9634 17.5 17.9634ZM5.83337 29.6665V26.2394C5.83337 25.3158 6.06428 24.5259 6.52608 23.8696C6.98789 23.2134 7.58337 22.7151 8.31254 22.3748C9.94101 21.6457 11.5026 21.0988 12.9974 20.7342C14.4922 20.3696 15.9931 20.1873 17.5 20.1873C19.007 20.1873 20.5018 20.3757 21.9844 20.7524C23.4671 21.1292 25.0217 21.6723 26.6482 22.3819C27.409 22.7252 28.0189 23.2231 28.478 23.8755C28.9372 24.5278 29.1667 25.3158 29.1667 26.2394V29.6665H5.83337ZM8.02087 27.479H26.9792V26.2394C26.9792 25.8505 26.8638 25.4799 26.6329 25.1274C26.402 24.775 26.1164 24.5137 25.7761 24.3436C24.2205 23.5901 22.7987 23.0736 21.5105 22.7941C20.2223 22.5146 18.8855 22.3748 17.5 22.3748C16.1146 22.3748 14.7657 22.5146 13.4532 22.7941C12.1407 23.0736 10.7188 23.5901 9.18754 24.3436C8.84726 24.5137 8.56775 24.775 8.349 25.1274C8.13025 25.4799 8.02087 25.8505 8.02087 26.2394V27.479ZM17.5 15.7759C18.448 15.7759 19.2318 15.466 19.8516 14.8462C20.4714 14.2264 20.7813 13.4425 20.7813 12.4946C20.7813 11.5467 20.4714 10.7629 19.8516 10.1431C19.2318 9.52327 18.448 9.21338 17.5 9.21338C16.5521 9.21338 15.7683 9.52327 15.1485 10.1431C14.5287 10.7629 14.2188 11.5467 14.2188 12.4946C14.2188 13.4425 14.5287 14.2264 15.1485 14.8462C15.7683 15.466 16.5521 15.7759 17.5 15.7759Z" fill="white"/>
</svg>
