<svg width="30" height="30" viewBox="0 0 30 30" fill="none" xmlns="http://www.w3.org/2000/svg">
<path fill-rule="evenodd" clip-rule="evenodd" d="M15 11.0156C12.7995 11.0156 11.0156 12.7995 11.0156 15C11.0156 17.2005 12.7995 18.9844 15 18.9844C17.2005 18.9844 18.9844 17.2005 18.9844 15C18.9844 12.7995 17.2005 11.0156 15 11.0156ZM9.60938 15C9.60938 12.0228 12.0228 9.60938 15 9.60938C17.9772 9.60938 20.3906 12.0228 20.3906 15C20.3906 17.9772 17.9772 20.3906 15 20.3906C12.0228 20.3906 9.60938 17.9772 9.60938 15Z" fill="white"/>
<path fill-rule="evenodd" clip-rule="evenodd" d="M9.84375 4.92188C7.12547 4.92188 4.92188 7.12547 4.92188 9.84375V20.1562C4.92188 22.8745 7.12547 25.0781 9.84375 25.0781H20.1562C22.8745 25.0781 25.0781 22.8745 25.0781 20.1562V9.84375C25.0781 7.12547 22.8745 4.92188 20.1562 4.92188H9.84375ZM3.51562 9.84375C3.51562 6.34882 6.34882 3.51562 9.84375 3.51562H20.1562C23.6512 3.51562 26.4844 6.34882 26.4844 9.84375V20.1562C26.4844 23.6512 23.6512 26.4844 20.1562 26.4844H9.84375C6.34882 26.4844 3.51562 23.6512 3.51562 20.1562V9.84375Z" fill="white"/>
<path d="M21.0938 10.0781C21.741 10.0781 22.2656 9.55346 22.2656 8.90625C22.2656 8.25904 21.741 7.73438 21.0938 7.73438C20.4465 7.73438 19.9219 8.25904 19.9219 8.90625C19.9219 9.55346 20.4465 10.0781 21.0938 10.0781Z" fill="white"/>
</svg>
