<svg xmlns="http://www.w3.org/2000/svg" width="166" height="166" fill="none" viewBox="0 0 166 166">
  <path fill="#6752EA" d="m83 0 20.167 41.123 44.725-9.873-19.577 41.407 35.604 28.812-44.579 10.511-.328 45.8L83 129.48l-36.012 28.3-.328-45.8-44.579-10.511 35.604-28.812L18.108 31.25l44.725 9.873L83 0Z"/>
  <path fill="#fff" d="m64.8 109-5.4-5.4 37.8-37.8 5.4 5.46L64.8 109Zm28.8.9c-1.98 0-3.79-.48-5.43-1.44-1.62-.98-2.92-2.28-3.9-3.9-.98-1.64-1.47-3.46-1.47-5.46 0-1.96.5-3.76 1.5-5.4 1-1.64 2.32-2.95 3.96-3.93 1.64-.98 3.42-1.47 5.34-1.47 1.98 0 3.79.49 5.43 1.47 1.64.96 2.94 2.26 3.9 3.9.98 1.62 1.47 3.43 1.47 5.43 0 2-.49 3.82-1.47 5.46-.96 1.62-2.26 2.92-3.9 3.9-1.64.96-3.45 1.44-5.43 1.44Zm0-6.9c.7 0 1.34-.18 1.92-.54.6-.36 1.08-.83 1.44-1.41.36-.6.54-1.25.54-1.95s-.18-1.34-.54-1.92c-.36-.6-.84-1.08-1.44-1.44a3.57 3.57 0 0 0-1.92-.54c-.7 0-1.35.18-1.95.54-.58.36-1.05.84-1.41 1.44a3.57 3.57 0 0 0-.54 1.92c0 .7.18 1.35.54 1.95.36.58.83 1.05 1.41 1.41.6.36 1.25.54 1.95.54ZM68.4 86.5c-1.98 0-3.79-.48-5.43-1.44a11.29 11.29 0 0 1-3.93-3.9c-.96-1.64-1.44-3.46-1.44-5.46 0-1.96.5-3.76 1.5-5.4 1-1.64 2.32-2.95 3.96-3.93 1.64-.98 3.42-1.47 5.34-1.47 1.98 0 3.78.49 5.4 1.47 1.64.96 2.95 2.26 3.93 3.9.98 1.62 1.47 3.43 1.47 5.43 0 2-.49 3.82-1.47 5.46a11.29 11.29 0 0 1-3.93 3.9c-1.62.96-3.42 1.44-5.4 1.44Zm0-6.9c.7 0 1.34-.18 1.92-.54.6-.36 1.08-.83 1.44-1.41.36-.6.54-1.25.54-1.95s-.18-1.34-.54-1.92c-.36-.6-.84-1.08-1.44-1.44a3.57 3.57 0 0 0-1.92-.54c-.7 0-1.35.18-1.95.54-.58.36-1.05.84-1.41 1.44a3.57 3.57 0 0 0-.54 1.92c0 .7.18 1.35.54 1.95.36.58.83 1.05 1.41 1.41.6.36 1.25.54 1.95.54Z"/>
</svg>
