<svg width="30" height="30" viewBox="0 0 30 30" fill="none" xmlns="http://www.w3.org/2000/svg">
<path d="M27.4316 3.45591C26.8824 3.00052 26.1277 2.88333 25.4663 3.15074L3.07004 12.1925C2.08485 12.598 1.61496 13.7254 2.02046 14.7105C2.23019 15.22 2.64767 15.6154 3.16769 15.7972L7.99924 17.4769L10.6176 26.1341C10.6229 26.1518 10.6391 26.1625 10.6459 26.1795C10.673 26.2485 10.7126 26.3121 10.7625 26.3668C10.7811 26.3889 10.8014 26.4096 10.8231 26.4286C10.8883 26.4828 10.9641 26.5229 11.0456 26.5462C11.058 26.5499 11.0663 26.5609 11.079 26.5638L11.0863 26.5635L11.09 26.565C11.1317 26.5744 11.1743 26.5789 11.2169 26.5785C11.2727 26.5765 11.328 26.5669 11.3811 26.5499C11.3914 26.547 11.4018 26.5478 11.4119 26.5444C11.5026 26.5125 11.5845 26.4599 11.6513 26.3908C11.6591 26.383 11.6709 26.3816 11.6784 26.3734L15.4454 22.2169L20.9411 26.4723C21.275 26.7333 21.6867 26.8752 22.1105 26.8751C23.0272 26.875 23.8186 26.2328 24.0075 25.3358L28.0859 5.31382C28.2272 4.62123 27.9757 3.90712 27.4316 3.45591ZM11.9848 19.1188L11.1008 23.4147L9.25725 17.3175L18.4008 12.5562L12.1545 18.8026C12.0681 18.889 12.0092 18.999 11.9848 19.1188ZM22.7832 25.0843C22.7353 25.3144 22.5711 25.5031 22.3498 25.5824C22.1336 25.6655 21.8895 25.6285 21.7077 25.4847L15.7531 20.8741C15.4953 20.6745 15.1274 20.707 14.9084 20.9486L12.2889 23.8388L13.1714 19.5545L22.157 10.5677C22.4012 10.324 22.4016 9.92846 22.1578 9.68432C21.965 9.49107 21.6691 9.44545 21.427 9.57164L8.47279 16.3175L3.57663 14.6156C3.30975 14.5278 3.12825 14.28 3.12497 13.9991C3.11208 13.7162 3.27954 13.4561 3.54245 13.3509L25.935 4.31041C26.1689 4.21115 26.4389 4.25273 26.632 4.41783C26.8243 4.57301 26.9127 4.82333 26.8603 5.0648L22.7832 25.0843Z" fill="white"/>
</svg>
